<?xml version="1.0" standalone="no"?>
<!DOCTYPE svg PUBLIC "-//W3C//DTD SVG 20010904//EN"
 "http://www.w3.org/TR/2001/REC-SVG-20010904/DTD/svg10.dtd">
<svg version="1.0" xmlns="http://www.w3.org/2000/svg"
 width="822.000000pt" height="822.000000pt" viewBox="0 0 822.000000 822.000000"
 preserveAspectRatio="xMidYMid meet">
<metadata>
Created by potrace 1.14, written by Peter Selinger 2001-2017
</metadata>
<g transform="translate(0.000000,822.000000) scale(0.100000,-0.100000)"
fill="#000000" stroke="none">
<path d="M3895 8210 c-722 -55 -1372 -308 -1920 -746 -142 -113 -407 -378
-519 -519 -340 -428 -570 -916 -680 -1440 -95 -459 -96 -912 -1 -1380 114
-565 397 -1129 786 -1571 81 -91 99 -106 99 -82 0 15 378 739 396 758 12 12
14 12 14 -1 0 -28 57 -156 91 -206 18 -26 53 -70 78 -96 l45 -48 2 -257 c1
-180 6 -285 17 -352 31 -189 65 -333 93 -395 7 -16 30 -75 50 -130 145 -393
361 -735 659 -1044 251 -260 513 -451 847 -621 l158 -80 138 69 c239 120 416
235 629 410 124 102 328 307 427 431 184 230 374 564 466 820 22 63 47 129 55
146 21 45 61 210 86 359 19 110 22 169 23 388 l1 258 51 53 c61 63 114 150
147 242 l24 68 18 -34 c10 -19 30 -57 45 -85 47 -87 308 -588 326 -627 10 -21
21 -38 25 -38 10 0 108 109 193 215 378 473 630 1052 715 1650 47 328 49 629
5 949 -82 597 -320 1156 -700 1646 -111 143 -393 428 -539 544 -518 413 -1149
671 -1802 736 -151 15 -422 20 -548 10z m-707 -1186 c57 -23 91 -62 129 -143
98 -213 174 -512 189 -741 l6 -95 -101 -43 c-237 -102 -430 -254 -548 -433
-14 -22 -46 -52 -70 -66 -38 -22 -52 -25 -113 -21 -113 6 -171 60 -206 190
-18 71 -18 272 1 372 54 279 234 626 467 898 78 91 160 118 246 82z m1976 4
c47 -14 100 -65 187 -179 183 -241 314 -496 376 -738 24 -92 28 -125 28 -256
0 -178 -15 -243 -72 -306 -45 -50 -90 -69 -160 -69 -79 0 -122 26 -188 115
-135 182 -326 328 -548 416 -45 18 -83 33 -84 34 -8 5 22 236 44 350 46 242
167 558 229 602 60 42 118 52 188 31z m33 -1893 c59 -25 129 -84 178 -150 l44
-61 55 -1 c69 -2 151 -25 197 -56 26 -18 35 -31 37 -58 2 -30 -2 -41 -26 -61
l-29 -24 85 -44 c100 -53 206 -146 222 -196 22 -67 -31 -104 -148 -104 l-53 0
39 -47 c45 -54 66 -94 77 -140 5 -27 2 -37 -19 -58 -29 -29 -61 -32 -113 -10
-19 8 -39 15 -42 15 -4 0 -8 -89 -8 -197 -1 -162 -5 -217 -22 -303 -116 -560
-495 -1005 -1008 -1183 -456 -159 -979 -113 -1387 122 -318 183 -568 498 -686
866 -47 147 -60 250 -60 488 0 135 -4 207 -10 207 -6 0 -27 -7 -47 -15 -49
-21 -89 -19 -113 5 -39 39 -16 118 59 202 22 25 41 48 41 50 0 1 -33 3 -74 3
-82 0 -128 22 -134 64 -9 60 99 166 241 238 l68 34 -30 35 c-36 41 -38 53 -11
86 28 36 108 67 205 80 47 6 85 14 85 19 0 21 105 118 157 144 54 28 66 30
168 30 105 0 113 -1 170 -33 44 -23 109 -81 235 -207 l175 -175 0 -48 c-1 -40
-41 -133 -268 -628 -146 -319 -273 -606 -281 -637 -40 -154 -25 -304 44 -445
72 -145 221 -272 380 -324 81 -26 358 -38 705 -31 258 6 309 14 425 71 104 50
233 178 284 279 68 136 85 297 47 444 -12 45 -125 304 -285 653 -196 426 -266
589 -266 616 0 25 9 50 29 76 43 59 364 370 402 390 89 46 184 53 266 19z
m-973 -1716 c48 -13 38 -21 -47 -39 -61 -12 -134 -7 -196 15 l-36 12 65 16
c68 17 145 16 214 -4z m1101 -728 c-19 -25 -47 -62 -64 -81 l-29 -35 18 70
c10 39 21 96 25 128 l6 57 39 -46 38 -46 -33 -47z m-2370 -31 c7 -30 12 -56
11 -57 -1 -2 -26 29 -55 67 l-52 70 33 40 33 39 8 -52 c5 -29 15 -77 22 -107z
m373 -1145 c121 -29 252 -113 252 -162 0 -31 -26 -63 -51 -63 -11 0 -48 20
-84 45 -103 70 -187 84 -266 42 -124 -66 -113 -221 20 -307 63 -40 110 -49
128 -25 22 31 15 54 -22 72 -19 9 -37 25 -41 36 -9 29 4 65 27 72 24 8 183
-56 214 -86 19 -19 19 -20 -13 -112 -43 -121 -54 -137 -95 -137 -98 0 -250 66
-337 146 -140 130 -160 294 -49 402 82 81 189 107 317 77z m1232 -252 c147
-50 233 -203 186 -335 -29 -81 -109 -145 -232 -185 -64 -20 -106 -26 -220 -30
-105 -4 -143 -3 -149 7 -4 6 -7 127 -6 268 1 214 4 259 17 272 31 31 314 33
404 3z m-626 -72 c75 -27 86 -36 86 -77 0 -27 -5 -37 -26 -46 -22 -10 -36 -8
-87 10 -34 12 -81 22 -105 22 -36 0 -44 -4 -54 -25 -16 -35 -4 -46 129 -114
125 -65 153 -96 153 -171 0 -59 -29 -105 -85 -134 -62 -32 -206 -29 -298 7
-92 36 -127 62 -127 94 0 31 26 63 51 63 9 0 50 -16 90 -35 57 -27 86 -35 130
-35 64 0 85 15 75 55 -5 19 -27 35 -96 70 -157 79 -200 139 -166 228 32 84 98
120 206 113 36 -3 92 -14 124 -25z"/>
<path d="M3325 4884 c-155 -80 -151 -293 7 -359 89 -37 191 -4 241 77 49 79
44 96 -64 204 -102 102 -122 111 -184 78z m112 -80 c8 -21 -19 -46 -40 -38
-17 6 -23 35 -10 47 12 13 44 7 50 -9z"/>
<path d="M4707 4802 c-58 -58 -97 -105 -97 -117 1 -34 36 -100 68 -127 66 -55
170 -63 236 -17 120 82 116 262 -8 334 -74 43 -89 38 -199 -73z m130 2 c8 -21
-19 -46 -40 -38 -17 6 -23 35 -10 47 12 13 44 7 50 -9z"/>
<path d="M4303 1163 c-15 -5 -17 -119 -6 -247 4 -55 10 -79 22 -85 24 -13 130
6 186 34 64 32 88 65 92 129 8 111 -70 177 -207 175 -41 0 -81 -3 -87 -6z"/>
</g>
</svg>
